<svg xmlns="http://www.w3.org/2000/svg" id="Layer_1" data-name="Layer 1" viewBox="0 0 326 151.83"><defs><style>.cls-1{fill:#f8f8f8}.cls-10,.cls-2,.cls-3,.cls-4,.cls-5{fill:none;stroke-miterlimit:10}.cls-2,.cls-3,.cls-4,.cls-5{stroke:#ccc}.cls-3{stroke-dasharray:3.96 3.96}.cls-4{stroke-dasharray:3.88 3.88}.cls-5{stroke-dasharray:4.06 4.06}.cls-11,.cls-6{font-size:12px}.cls-6,.cls-9{font-family:Consolas-Bold,Consolas}.cls-7{fill:#45960e}.cls-7,.cls-9{font-weight:700}.cls-8{font-family:Consolas,Consolas}.cls-9{fill:#c1272d}.cls-10{stroke:#000;stroke-width:2px}.cls-11{font-family:AvenirNext-Medium,Avenir Next}.cls-12{letter-spacing:-.07em}.cls-13{letter-spacing:0}.cls-14{letter-spacing:-.01em}.cls-15{letter-spacing:.02em}.cls-16{letter-spacing:-.01em}.cls-17,.cls-18{letter-spacing:-.02em}.cls-19{letter-spacing:0}</style></defs><title>soa</title><rect width="142.46" height="116.45" x="181.5" y="2.22" class="cls-1"/><polyline points="323.96 116.67 323.96 118.67 321.96 118.67" class="cls-2"/><line x1="318" x2="185.48" y1="118.67" y2="118.67" class="cls-3"/><polyline points="183.5 118.67 181.5 118.67 181.5 116.67" class="cls-2"/><line x1="181.5" x2="181.5" y1="112.79" y2="6.16" class="cls-4"/><polyline points="181.5 4.22 181.5 2.22 183.5 2.22" class="cls-2"/><line x1="187.46" x2="319.98" y1="2.22" y2="2.22" class="cls-3"/><polyline points="321.96 2.22 323.96 2.22 323.96 4.22" class="cls-2"/><line x1="323.96" x2="323.96" y1="8.1" y2="114.73" class="cls-4"/><rect width="145.98" height="116.45" x="5" y="2.22" class="cls-1"/><polyline points="150.98 116.67 150.98 118.67 148.98 118.67" class="cls-2"/><line x1="144.92" x2="9.03" y1="118.67" y2="118.67" class="cls-5"/><polyline points="7 118.67 5 118.67 5 116.67" class="cls-2"/><line x1="5" x2="5" y1="112.79" y2="6.16" class="cls-4"/><polyline points="5 4.22 5 2.22 7 2.22" class="cls-2"/><line x1="11.06" x2="146.95" y1="2.22" y2="2.22" class="cls-5"/><polyline points="148.98 2.22 150.98 2.22 150.98 4.22" class="cls-2"/><line x1="150.98" x2="150.98" y1="8.1" y2="114.73" class="cls-4"/><text class="cls-6" transform="translate(12.5 20)"><tspan class="cls-7">struct </tspan><tspan x="46.18" y="0" class="cls-8">Vector3f {</tspan><tspan class="cls-8"><tspan x="0" y="14.4" xml:space="preserve"> </tspan><tspan x="26.39" y="14.4" class="cls-9">float </tspan><tspan x="65.98" y="14.4">x;</tspan><tspan x="0" y="28.8" xml:space="preserve"> </tspan><tspan x="26.39" y="28.8" class="cls-9">float </tspan><tspan x="65.98" y="28.8">y;</tspan><tspan x="0" y="43.2" xml:space="preserve"> </tspan><tspan x="26.39" y="43.2" class="cls-9">float </tspan><tspan x="65.98" y="43.2">z;</tspan><tspan x="0" y="57.6">};</tspan><tspan x="0" y="86.4">Vector3f vectors[N];</tspan></tspan></text><text class="cls-6" transform="translate(191 20)"><tspan class="cls-7">struct </tspan><tspan x="46.18" y="0" class="cls-8">Vector3fP {</tspan><tspan class="cls-8"><tspan x="0" y="14.4" xml:space="preserve"> </tspan><tspan x="26.39" y="14.4" class="cls-9">float </tspan><tspan x="65.98" y="14.4">x[N];</tspan><tspan x="0" y="28.8" xml:space="preserve"> </tspan><tspan x="26.39" y="28.8" class="cls-9">float </tspan><tspan x="65.98" y="28.8">y[N];</tspan><tspan x="0" y="43.2" xml:space="preserve"> </tspan><tspan x="26.39" y="43.2" class="cls-9">float </tspan><tspan x="65.98" y="43.2">z[N];</tspan><tspan x="0" y="57.6">};</tspan><tspan x="0" y="86.4">Vector3fP vectors;</tspan></tspan></text><path d="M128.5,95c0-8.5-3.09-8.07,50-7.5,84,.9,94.61,1,95.1-16" class="cls-10"/><polygon points="277.25 74.26 273.54 72.7 269.85 74.3 273.5 65.5 277.25 74.26"/><text class="cls-11" transform="translate(22.23 137.5)"><tspan class="cls-12">“</tspan><tspan x="4.25" y="0" class="cls-13">Ar</tspan><tspan x="17.12" y="0" class="cls-14">r</tspan><tspan x="21.31" y="0">ay o</tspan><tspan x="44.18" y="0" class="cls-15">f</tspan><tspan x="48.19" y="0"> </tspan><tspan x="51.19" y="0" class="cls-16">S</tspan><tspan x="57.95" y="0">tructu</tspan><tspan x="90.08" y="0" class="cls-17">r</tspan><tspan x="94.21" y="0">es”</tspan></text><text class="cls-11" transform="translate(196.64 137.5)">“<tspan x="5.11" y="0" class="cls-16">S</tspan><tspan x="11.87" y="0" class="cls-13">tructu</tspan><tspan x="44" y="0" class="cls-18">r</tspan><tspan x="48.13" y="0">e o</tspan><tspan x="65.33" y="0" class="cls-15">f</tspan><tspan x="69.33" y="0" class="cls-18"> </tspan><tspan x="72.12" y="0" class="cls-19">Ar</tspan><tspan x="85" y="0" class="cls-14">r</tspan><tspan x="89.18" y="0">ays”</tspan></text></svg>